<svg xmlns="http://www.w3.org/2000/svg" viewBox="0 0 1024 1024">
  <g>
    <g>
      <path d="M796.9,289.6H354.638a30.638,30.638,0,0,0,0,61.276H796.9a30.638,30.638,0,1,0,0-61.276Zm0,205.548H354.638a30.638,30.638,0,0,0,0,61.276H796.9a30.638,30.638,0,1,0,0-61.276Zm0,205.548H354.638a30.638,30.638,0,0,0,0,61.276H796.9a30.638,30.638,0,0,0,0-61.276Z" transform="translate(10.347 8.352)"/>
      <path d="M871.666,120H307.171a79.842,79.842,0,0,0-79.743,79.743v18.572c-1.049,0-1.994-.1-3.043-.1A110.357,110.357,0,0,0,177.17,428.374a110.154,110.154,0,0,0,0,199.357A110.357,110.357,0,0,0,224.386,837.9c1.049,0,1.994-.1,3.043-.1v24.657a79.842,79.842,0,0,0,79.743,79.743H871.666a79.842,79.842,0,0,0,79.743-79.743v-662.7A79.842,79.842,0,0,0,871.666,120ZM175.281,328.59a49.168,49.168,0,0,1,49.1-49.1c1.049,0,2.1.1,3.043.1v97.895a29.487,29.487,0,0,1-3.043.1,49.011,49.011,0,0,1-49.1-49Zm0,199.462a49.168,49.168,0,0,1,49.1-49.1c1.049,0,2.1.105,3.043.105v97.895a29.521,29.521,0,0,1-3.043.1A49.011,49.011,0,0,1,175.281,528.052Zm49.1,248.462a49.1,49.1,0,0,1,0-98.21c1.049,0,2.1.105,3.043.105V776.3A29.662,29.662,0,0,1,224.386,776.514Zm665.642,85.933a18.588,18.588,0,0,1-18.362,18.362h-564.5a18.588,18.588,0,0,1-18.362-18.362v-662.7a18.588,18.588,0,0,1,18.362-18.362h564.5a18.588,18.588,0,0,1,18.362,18.362v662.7Z"/>
    </g>
  </g>
</svg>
