<svg xmlns="http://www.w3.org/2000/svg" viewBox="0 0 1024 1024">
  <path d="M690.414,679.438a35.985,35.985,0,1,1-50.166,51.606l-91.407-88.9v-102.3a35.989,35.989,0,1,1,71.979,0v71.889l69.595,67.705Zm-60.6,211.3c-144.1,0-260.924-116.82-260.924-260.924s116.82-260.924,260.924-260.924,260.924,116.82,260.924,260.924S773.921,890.741,629.817,890.741Zm0-71.979c104.351,0,188.945-84.594,188.945-188.945S734.168,440.872,629.817,440.872,440.872,525.465,440.872,629.817,525.465,818.762,629.817,818.762ZM304.022,753.216a44.987,44.987,0,1,1,0,89.974H89.974A89.974,89.974,0,0,1,0,753.216V89.974A89.974,89.974,0,0,1,89.974,0H670.935a89.974,89.974,0,0,1,89.974,89.974V267.717a44.987,44.987,0,0,1-89.974,0V89.974H89.974V753.216H304.022Zm-125.874-460.8a44.987,44.987,0,0,1,0-89.974h359.9a44.987,44.987,0,0,1,0,89.974Zm0,179.948a44.987,44.987,0,0,1,0-89.974h79.4a44.987,44.987,0,1,1,0,89.974H178.193Z"/>
</svg>
